#!OML:ASF G:\JayActor3\Patient Classification 1\Patient 1\Session 5\male.ASF
:FULLY-SPECIFIED
:DEGREES
652
root -6.9041 16.7856 -6.71756 328.042 -88.3222 -331.278
lowerback -1.15048 -1.63163 0.443176
upperback 0.935919 -2.18519 -0.0751238
thorax 1.58333 -1.08712 -0.379462
lowerneck -6.45996 0.286905 2.27666
upperneck 4.57515 0.127286 0.731989
head 2.57134 0.126151 -0.153932
rclavicle 1.05356e-014 -1.98785e-016
rhumerus -34.4955 -14.1616 -80.4155
rradius 20.2809
rwrist 9.79984
rhand -18.5568 -7.25004
rfingers 7.12502
rthumb 7.73298 -37.0886
lclavicle 1.05356e-014 -1.98785e-016
lhumerus -35.656 9.07829 82.9098
lradius 22.3906
lwrist 14.6151
lhand -17.0175 17.989
lfingers 7.12502
lthumb 9.21847 47.7675
rfemur -23.3663 5.85714 23.0073
rtibia 35.5791
rfoot -14.5034 -14.9477
rtoes 8.47462
lfemur 18.3456 10.1804 -15.9566
ltibia 34.0971
lfoot 13.3436 4.63319
ltoes -12.7744
653
root -7.06884 16.8113 -6.73867 341.614 -88.173 -344.978
lowerback -1.04107 -1.69674 0.781437
upperback 0.936038 -2.27864 -0.00341998
thorax 1.51104 -1.13091 -0.49361
lowerneck -6.49725 0.27628 2.28355
upperneck 4.67966 0.107483 0.766282
head 2.61325 0.118642 -0.145008
rclavicle 7.67185e-015 3.37934e-015
rhumerus -34.5353 -14.1437 -80.4663
rradius 20.3874
rwrist 9.66251
rhand -18.5952 -7.28576
rfingers 7.12502
rthumb 7.69592 -37.1257
lclavicle 7.67185e-015 3.37934e-015
lhumerus -35.8784 9.09765 82.8349
lradius 22.3988
lwrist 14.7567
lhand -16.8751 18.0752
lfingers 7.12502
lthumb 9.35587 47.8476
rfemur -22.3692 5.59787 23.5184
rtibia 35.2683
rfoot -14.6319 -14.9466
rtoes 9.10948
lfemur 16.6859 9.79478 -15.5038
ltibia 37.1978
lfoot 14.9495 4.97456
ltoes -10.0228
654
root -7.23068 16.8361 -6.7585 353.866 -87.9715 -357.354
lowerback -0.953073 -1.74879 1.17685
upperback 0.958516 -2.35556 0.0788989
thorax 1.47138 -1.16593 -0.629285
lowerneck -6.52371 0.261797 2.28316
upperneck 4.73638 0.0835036 0.810529
head 2.63704 0.10874 -0.131795
rclavicle 4.09993e-015 -1.59028e-015
rhumerus -34.526 -14.0852 -80.5556
rradius 20.5252
rwrist 9.47784
rhand -18.6742 -7.32162
rfingers 7.12502
rthumb 7.61967 -37.1644
lclavicle 4.09993e-015 -1.59028e-015
lhumerus -36.0312 9.06004 82.8027
lradius 22.4214
lwrist 14.8808
lhand -16.7631 18.1135
lfingers 7.12502
lthumb 9.46391 47.881
rfemur -21.3717 5.33889 24.0733
rtibia 34.9042
rfoot -14.7645 -14.9337
rtoes 9.73198
lfemur 15.0413 9.36648 -15.0577
ltibia 40.1108
lfoot 16.228 5.22752
ltoes -7.74294
655
root -7.38984 16.8591 -6.77748 363.659 -87.7201 -367.266
lowerback -0.884144 -1.78803 1.57564
upperback 0.996669 -2.41551 0.161114
thorax 1.45804 -1.19231 -0.767353
lowerneck -6.53693 0.242374 2.27934
upperneck 4.75421 0.053833 0.860273
head 2.64522 0.0956873 -0.116458
rclavicle 9.13167e-015 -1.39149e-015
rhumerus -34.4792 -13.9741 -80.6863
rradius 20.694
rwrist 9.22188
rhand -18.7857 -7.34149
rfingers 7.12502
rthumb 7.51196 -37.1881
lclavicle 9.13167e-015 -1.39149e-015
lhumerus -36.127 8.97086 82.8089
lradius 22.4647
lwrist 14.977
lhand -16.6814 18.1231
lfingers 7.12502
lthumb 9.5428 47.887
rfemur -20.3911 5.09131 24.6237
rtibia 34.5189
rfoot -14.9232 -14.9107
rtoes 10.3272
lfemur 13.4221 8.91907 -14.6517
ltibia 42.8279
lfoot 17.025 5.33929
ltoes -6.14899
656
root -7.54634 16.8798 -6.79596 371.309 -87.4555 -375.02
lowerback -0.838943 -1.81001 1.96163
upperback 1.04215 -2.45258 0.240349
thorax 1.46606 -1.20714 -0.901743
lowerneck -6.53128 0.21689 2.2752
upperneck 4.74029 0.01697 0.912629
head 2.63912 0.0787326 -0.100526
rclavicle -1.28775e-014 3.37934e-015
rhumerus -34.4062 -13.8106 -80.8541
rradius 20.8953
rwrist 8.91252
rhand -18.884 -7.38292
rfingers 7.12502
rthumb 7.41716 -37.2329
lclavicle -1.28775e-014 3.37934e-015
lhumerus -36.1731 8.85681 82.8364
lradius 22.5195
lwrist 15.0222
lhand -16.6349 18.1034
lfingers 7.12502
lthumb 9.58762 47.8653
rfemur -19.4517 4.88357 25.1581
rtibia 34.1424
rfoot -15.1285 -14.8735
rtoes 10.8645
lfemur 11.83 8.48429 -14.286
ltibia 45.34
lfoot 17.2506 5.2687
ltoes -5.33407
